<?xml version="1.0" standalone="no"?>
<!DOCTYPE svg PUBLIC "-//W3C//DTD SVG 20010904//EN"
 "http://www.w3.org/TR/2001/REC-SVG-20010904/DTD/svg10.dtd">
<svg version="1.0" xmlns="http://www.w3.org/2000/svg"
 width="1024.000000pt" height="1024.000000pt" viewBox="0 0 1024.000000 1024.000000"
 preserveAspectRatio="xMidYMid meet">
<metadata>
Created by potrace 1.11, written by Peter Selinger 2001-2013
</metadata>
<g transform="translate(0.000000,1024.000000) scale(0.100000,-0.100000)"
fill="#000000" stroke="none">
<path d="M0 5120 l0 -5120 5120 0 5120 0 0 5120 0 5120 -5120 0 -5120 0 0
-5120z m5694 2971 c160 -57 291 -200 375 -411 27 -69 1728 -4724 1792 -4906
94 -266 74 -433 -69 -566 -60 -56 -93 -74 -174 -93 -231 -54 -441 46 -541 258
-32 68 -214 567 -507 1392 -356 1001 -1054 2935 -1060 2935 -6 0 -820 -2249
-820 -2265 0 -3 204 -5 453 -5 483 0 520 -3 624 -52 27 -12 73 -47 104 -78 70
-69 100 -141 107 -257 9 -156 -54 -283 -178 -359 -111 -68 -107 -67 -792 -72
l-617 -3 -14 -42 c-134 -388 -409 -1131 -440 -1191 -105 -199 -257 -289 -460
-273 -224 17 -377 177 -377 393 0 112 26 200 195 660 91 247 165 450 165 450
0 1 -177 4 -392 7 -419 5 -441 7 -544 58 -273 136 -269 565 6 704 102 52 141
55 707 55 l522 0 19 53 c11 28 273 745 582 1592 310 847 580 1580 600 1628 54
125 96 192 165 261 69 70 159 121 248 142 86 19 244 12 321 -15z"/>
</g>
</svg>
